<svg width="75" height="76" viewBox="0 0 75 76" fill="none" xmlns="http://www.w3.org/2000/svg">
<path fill-rule="evenodd" clip-rule="evenodd" d="M70.3099 47.521C68.8218 50.0639 66.9805 52.3804 64.8417 54.4005C65.6255 51.7881 66.1172 49.0496 66.2756 46.2221C69.0079 41.9121 70.4556 36.9058 70.4478 31.7949C70.4478 16.9438 58.4744 4.90565 43.7031 4.90565C38.422 4.90565 33.4989 6.44454 29.3535 9.09831C26.5948 9.2548 23.8643 9.73943 21.219 10.5421C23.2282 8.39167 25.5323 6.54041 28.0615 5.04423C32.8006 2.23668 38.2025 0.760127 43.7031 0.768837C60.7456 0.768837 74.5624 14.6602 74.5624 31.7949C74.5624 32.1066 74.5576 32.4175 74.548 32.7278C74.4027 37.9399 72.9445 43.0298 70.3099 47.521Z" fill="#D32F2F"/>
<path fill-rule="evenodd" clip-rule="evenodd" d="M62.2186 44.2053C62.2186 61.34 48.4018 75.2314 31.3593 75.2314C14.3167 75.2314 0.5 61.34 0.5 44.2053C0.5 27.0706 14.3167 13.1792 31.3593 13.1792C48.4018 13.1792 62.2186 27.0706 62.2186 44.2053ZM29.302 33.8633C28.2108 33.8633 27.1642 34.2991 26.3926 35.0749C25.6209 35.8507 25.1874 36.9029 25.1874 38.0001C25.1874 39.0972 25.6209 40.1494 26.3926 40.9252C27.1642 41.701 28.2108 42.1369 29.302 42.1369V33.8633ZM33.4166 29.7264V27.658H29.302V29.7264C27.1195 29.7264 25.0264 30.5981 23.4831 32.1497C21.9399 33.7013 21.0729 35.8058 21.0729 38.0001C21.0729 40.1944 21.9399 42.2988 23.4831 43.8504C25.0264 45.402 27.1195 46.2737 29.302 46.2737V54.5473C27.5122 54.5473 25.9877 53.3993 25.4199 51.7901C25.3357 51.5268 25.1998 51.2832 25.0202 51.0737C24.8407 50.8641 24.6212 50.6929 24.3747 50.5701C24.1282 50.4474 23.8598 50.3755 23.5852 50.3589C23.3106 50.3423 23.0355 50.3812 22.7761 50.4733C22.5168 50.5655 22.2784 50.7089 22.0752 50.8953C21.8719 51.0817 21.7079 51.3071 21.5928 51.5583C21.4778 51.8095 21.414 52.0814 21.4052 52.3578C21.3965 52.6343 21.443 52.9096 21.5419 53.1677C22.1091 54.7812 23.16 56.1781 24.5498 57.1661C25.9396 58.154 27.5999 58.6844 29.302 58.6841V60.7525H33.4166V58.6841C35.5991 58.6841 37.6922 57.8124 39.2355 56.2608C40.7787 54.7092 41.6457 52.6048 41.6457 50.4105C41.6457 48.2162 40.7787 46.1118 39.2355 44.5602C37.6922 43.0086 35.5991 42.1369 33.4166 42.1369V33.8633C35.2064 33.8633 36.7309 35.0112 37.2987 36.6204C37.3829 36.8837 37.5188 37.1273 37.6983 37.3369C37.8779 37.5464 38.0974 37.7177 38.3439 37.8404C38.5903 37.9632 38.8588 38.035 39.1334 38.0516C39.408 38.0683 39.6831 38.0294 39.9425 37.9372C40.2018 37.8451 40.4402 37.7016 40.6434 37.5152C40.8467 37.3289 41.0107 37.1034 41.1257 36.8522C41.2408 36.601 41.3046 36.3292 41.3134 36.0527C41.3221 35.7763 41.2756 35.5009 41.1767 35.2429C40.6094 33.6294 39.5585 32.2325 38.1688 31.2445C36.779 30.2565 35.1187 29.7262 33.4166 29.7264ZM33.4166 46.2737V54.5473C34.5078 54.5473 35.5544 54.1115 36.326 53.3357C37.0976 52.5599 37.5311 51.5076 37.5311 50.4105C37.5311 49.3133 37.0976 48.2611 36.326 47.4853C35.5544 46.7095 34.5078 46.2737 33.4166 46.2737Z" fill="#D32F2F"/>
</svg>
