<svg width="104" height="58" viewBox="0 0 104 58" fill="none" xmlns="http://www.w3.org/2000/svg">
<g filter="url(#filter0_d_98_81)">
<path d="M75.2131 16.3875C72.8907 14.1033 69.7409 12.8201 66.4565 12.8201C63.1722 12.8201 60.0224 14.1033 57.7 16.3875C55.3776 18.6717 54.0729 21.7697 54.0729 25C54.0729 28.2303 55.3776 31.3283 57.7 33.6125C58.8499 34.7435 60.2151 35.6407 61.7175 36.2528C63.22 36.8649 64.8303 37.1799 66.4565 37.1799C68.0828 37.1799 69.6931 36.8649 71.1955 36.2528C72.698 35.6407 74.0631 34.7435 75.2131 33.6125C76.363 32.4815 77.2751 31.1388 77.8975 29.6611C78.5198 28.1833 78.8401 26.5995 78.8401 25C78.8401 23.4005 78.5198 21.8167 77.8975 20.3389C77.2751 18.8612 76.363 17.5185 75.2131 16.3875ZM33.413 0.625V49.375H99.5V0.625H33.413ZM91.2391 33.125C89.05 33.125 86.9435 33.9781 85.4152 35.5219C83.8457 37.025 82.9783 39.0969 82.9783 41.25H49.9348C49.9348 39.0969 49.0674 37.025 47.4978 35.5219C45.9696 33.9781 43.863 33.125 41.6739 33.125V16.875C43.863 16.875 45.9696 16.0219 47.4978 14.4781C49.0674 12.975 49.9348 10.9031 49.9348 8.75H82.9783C82.9783 10.9031 83.8457 12.975 85.4152 14.4781C86.9435 16.0219 89.05 16.875 91.2391 16.875V33.125ZM25.1522 8.75H16.8913C14.6196 8.75 12.7609 6.92188 12.7609 4.6875C12.7609 2.45312 14.6196 0.625 16.8913 0.625H25.1522V8.75ZM25.1522 29.0625H12.7609C10.4891 29.0625 8.63043 27.2344 8.63043 25C8.63043 22.7656 10.4891 20.9375 12.7609 20.9375H25.1522V29.0625ZM25.1522 49.375H8.63043C6.35043 49.375 4.5 47.5469 4.5 45.3125C4.5 43.0781 6.35043 41.25 8.63043 41.25H25.1522V49.375Z" fill="#1E3A5F"/>
</g>
<defs>
<filter id="filter0_d_98_81" x="0.5" y="0.625" width="103" height="56.75" filterUnits="userSpaceOnUse" color-interpolation-filters="sRGB">
<feFlood flood-opacity="0" result="BackgroundImageFix"/>
<feColorMatrix in="SourceAlpha" type="matrix" values="0 0 0 0 0 0 0 0 0 0 0 0 0 0 0 0 0 0 127 0" result="hardAlpha"/>
<feOffset dy="4"/>
<feGaussianBlur stdDeviation="2"/>
<feComposite in2="hardAlpha" operator="out"/>
<feColorMatrix type="matrix" values="0 0 0 0 0 0 0 0 0 0 0 0 0 0 0 0 0 0 0.25 0"/>
<feBlend mode="normal" in2="BackgroundImageFix" result="effect1_dropShadow_98_81"/>
<feBlend mode="normal" in="SourceGraphic" in2="effect1_dropShadow_98_81" result="shape"/>
</filter>
</defs>
</svg>
