<svg width="93" height="84" viewBox="0 0 93 84" fill="none" xmlns="http://www.w3.org/2000/svg">
<g filter="url(#filter0_d_98_71)">
<path d="M50.1112 3.26716C50.1112 2.40066 49.7308 1.56964 49.0536 0.956929C48.3764 0.344218 47.4579 0 46.5002 0C45.5425 0 44.6241 0.344218 43.9469 0.956929C43.2697 1.56964 42.8893 2.40066 42.8893 3.26716V5.28173H42.6445C37.6059 5.28173 34.6788 8.73341 34.0981 12.0548C33.5175 15.3329 35.0579 19.4358 39.6886 20.9467L51.023 24.6415C51.4165 24.7718 51.5652 24.9455 51.642 25.0757C51.738 25.2494 51.8004 25.5099 51.738 25.8138C51.6981 26.0636 51.5702 26.295 51.3733 26.4738C51.2533 26.5736 51.0422 26.6952 50.5959 26.6952H42.6445C42.4403 26.6929 42.2387 26.6543 42.051 26.5815C41.8633 26.5087 41.6933 26.4032 41.5507 26.2709C41.4081 26.1387 41.2957 25.9823 41.2199 25.8108C41.1441 25.6392 41.1064 25.4558 41.109 25.2711C41.109 24.4052 40.7288 23.5747 40.052 22.9624C39.3753 22.3501 38.4574 22.0061 37.5004 22.0061C36.5433 22.0061 35.6255 22.3501 34.9487 22.9624C34.272 23.5747 33.8918 24.4052 33.8918 25.2711C33.8918 29.6389 37.7787 33.2295 42.6445 33.2295H43.0092V35.8302C43.0092 36.6967 43.3897 37.5277 44.0669 38.1404C44.744 38.7532 45.6625 39.0974 46.6202 39.0974C47.5779 39.0974 48.4964 38.7532 49.1736 38.1404C49.8508 37.5277 50.2312 36.6967 50.2312 35.8302V33.2295H50.5959C60.0205 33.2295 62.2374 21.3548 53.4703 18.4936L42.1407 14.8032C41.9783 14.7584 41.8277 14.684 41.6982 14.5847C41.5686 14.4854 41.4628 14.3633 41.3873 14.2257C41.2044 13.8693 41.1474 13.4706 41.2241 13.0838C41.276 12.7171 41.4559 12.3748 41.7376 12.1069C41.9103 11.9506 42.1647 11.816 42.6445 11.816H50.356C51.1717 11.816 51.8867 12.4239 51.8867 13.2401C51.8867 14.1066 52.2672 14.9377 52.9444 15.5504C53.6216 16.1631 54.54 16.5073 55.4977 16.5073C56.4554 16.5073 57.3739 16.1631 58.0511 15.5504C58.7283 14.9377 59.1087 14.1066 59.1087 13.2401C59.1087 8.87235 55.2218 5.28173 50.356 5.28173H50.1112V3.26716ZM34.1797 42.3341C30.0385 42.3341 26.8761 43.2285 24.2801 44.696C21.8807 46.0507 20.1292 47.8221 18.728 49.2375L18.5793 49.3895C17.0629 50.9178 15.8968 52.0553 14.39 52.8889C12.9888 53.6661 11.103 54.2739 8.1086 54.2739C7.63436 54.2728 7.16454 54.3564 6.72616 54.5201C6.28777 54.6838 5.88946 54.9243 5.55412 55.2277C5.21878 55.5311 4.95302 55.8915 4.77212 56.2881C4.59122 56.6847 4.49875 57.1098 4.50001 57.5389V72.735C4.50001 74.5412 6.11716 76 8.1086 76H53.7054C62.0743 76 70.1456 71.9188 75.7936 68.2543C79.1817 66.0397 82.3641 63.5784 85.3094 60.8951L85.3286 60.8777C87.0753 59.5752 88.1598 57.8906 88.4333 56.028C88.7116 54.135 88.0974 52.3375 86.9937 50.9482C85.7572 49.3828 83.8939 48.3162 81.801 47.9755C79.708 47.6349 77.5507 48.0472 75.7888 49.1246C74.8419 49.7325 73.9158 50.3345 73.0104 50.9308C70.2704 52.7283 67.6263 54.465 64.7903 55.9194C61.0954 57.8168 57.482 59.0108 53.7054 59.0108H39.2999C38.3401 59.0108 37.9418 58.7416 37.8027 58.6113C37.7067 58.5264 37.6314 58.4241 37.5818 58.3112C37.5322 58.1982 37.5094 58.0771 37.5148 57.9557C37.5087 57.8336 37.5312 57.7117 37.5808 57.5979C37.6304 57.4842 37.706 57.3812 37.8027 57.2958C37.9466 57.1655 38.3401 56.8963 39.2999 56.8963H48.9068C51.4645 56.8963 53.7342 56.1713 55.4042 54.7732C56.1917 54.1162 56.8202 53.3187 57.25 52.4309C57.6799 51.5432 57.9019 50.5844 57.9019 49.6152C57.9019 48.646 57.6799 47.6873 57.25 46.7996C56.8202 45.9118 56.1917 45.1143 55.4042 44.4572C53.7342 43.0592 51.4645 42.3298 48.9068 42.3298L34.1797 42.3341Z" fill="#2E7D32"/>
</g>
<defs>
<filter id="filter0_d_98_71" x="0.5" y="0" width="92" height="84" filterUnits="userSpaceOnUse" color-interpolation-filters="sRGB">
<feFlood flood-opacity="0" result="BackgroundImageFix"/>
<feColorMatrix in="SourceAlpha" type="matrix" values="0 0 0 0 0 0 0 0 0 0 0 0 0 0 0 0 0 0 127 0" result="hardAlpha"/>
<feOffset dy="4"/>
<feGaussianBlur stdDeviation="2"/>
<feComposite in2="hardAlpha" operator="out"/>
<feColorMatrix type="matrix" values="0 0 0 0 0 0 0 0 0 0 0 0 0 0 0 0 0 0 0.25 0"/>
<feBlend mode="normal" in2="BackgroundImageFix" result="effect1_dropShadow_98_71"/>
<feBlend mode="normal" in="SourceGraphic" in2="effect1_dropShadow_98_71" result="shape"/>
</filter>
</defs>
</svg>
