<svg width="28" height="26" viewBox="0 0 28 26" fill="none" xmlns="http://www.w3.org/2000/svg">
<path d="M26.5 0.5H1.5C1.16848 0.5 0.850537 0.631696 0.616116 0.866116C0.381696 1.10054 0.25 1.41848 0.25 1.75V11.75C0.25 12.0815 0.381696 12.3995 0.616116 12.6339C0.850537 12.8683 1.16848 13 1.5 13H5.25V24.25C5.25 24.5815 5.3817 24.8995 5.61612 25.1339C5.85054 25.3683 6.16848 25.5 6.5 25.5H21.5C21.8315 25.5 22.1495 25.3683 22.3839 25.1339C22.6183 24.8995 22.75 24.5815 22.75 24.25V13H26.5C26.8315 13 27.1495 12.8683 27.3839 12.6339C27.6183 12.3995 27.75 12.0815 27.75 11.75V1.75C27.75 1.41848 27.6183 1.10054 27.3839 0.866116C27.1495 0.631696 26.8315 0.5 26.5 0.5ZM7.75 23V20.5C8.41304 20.5 9.04893 20.7634 9.51777 21.2322C9.98661 21.7011 10.25 22.337 10.25 23H7.75ZM20.25 23H17.75C17.75 22.337 18.0134 21.7011 18.4822 21.2322C18.9511 20.7634 19.587 20.5 20.25 20.5V23ZM20.25 18C18.9239 18 17.6521 18.5268 16.7145 19.4645C15.7768 20.4021 15.25 21.6739 15.25 23H12.75C12.75 21.6739 12.2232 20.4021 11.2855 19.4645C10.3479 18.5268 9.07608 18 7.75 18V8H20.25V18ZM25.25 10.5H22.75V6.75C22.75 6.41848 22.6183 6.10054 22.3839 5.86612C22.1495 5.6317 21.8315 5.5 21.5 5.5H6.5C6.16848 5.5 5.85054 5.6317 5.61612 5.86612C5.3817 6.10054 5.25 6.41848 5.25 6.75V10.5H2.75V3H25.25V10.5ZM14 16.75C14.7417 16.75 15.4667 16.5301 16.0834 16.118C16.7001 15.706 17.1807 15.1203 17.4645 14.4351C17.7484 13.7498 17.8226 12.9958 17.6779 12.2684C17.5333 11.541 17.1761 10.8728 16.6517 10.3483C16.1272 9.8239 15.459 9.46675 14.7316 9.32205C14.0042 9.17736 13.2502 9.25162 12.5649 9.53545C11.8797 9.81928 11.294 10.2999 10.882 10.9166C10.4699 11.5333 10.25 12.2583 10.25 13C10.25 13.9946 10.6451 14.9484 11.3483 15.6517C12.0516 16.3549 13.0054 16.75 14 16.75ZM14 11.75C14.2472 11.75 14.4889 11.8233 14.6945 11.9607C14.9 12.098 15.0602 12.2932 15.1549 12.5216C15.2495 12.7501 15.2742 13.0014 15.226 13.2439C15.1778 13.4863 15.0587 13.7091 14.8839 13.8839C14.7091 14.0587 14.4863 14.1778 14.2439 14.226C14.0014 14.2742 13.7501 14.2495 13.5216 14.1549C13.2932 14.0602 13.098 13.9 12.9607 13.6945C12.8233 13.4889 12.75 13.2472 12.75 13C12.75 12.6685 12.8817 12.3505 13.1161 12.1161C13.3505 11.8817 13.6685 11.75 14 11.75Z" fill="white"/>
</svg>
