<svg width="30" height="24" viewBox="0 0 30 24" fill="none" xmlns="http://www.w3.org/2000/svg">
<path d="M25.0781 1.92193C24.6375 1.4813 24.6375 0.768801 25.0781 0.332864C25.5187 -0.103074 26.2313 -0.107761 26.6672 0.332864L29.6672 3.33286C29.8781 3.5438 29.9953 3.82974 29.9953 4.12974C29.9953 4.42974 29.8781 4.71568 29.6672 4.92661L26.6672 7.92661C26.2266 8.36724 25.5141 8.36724 25.0781 7.92661C24.6422 7.48599 24.6375 6.77349 25.0781 6.33755L26.1562 5.25943L18 5.25005C17.3766 5.25005 16.875 4.74849 16.875 4.12505C16.875 3.50161 17.3766 3.00005 18 3.00005H26.1609L25.0781 1.92193ZM4.92188 17.6719L3.84375 18.75H12C12.6234 18.75 13.125 19.2516 13.125 19.875C13.125 20.4985 12.6234 21 12 21H3.83906L4.91719 22.0782C5.35781 22.5188 5.35781 23.2313 4.91719 23.6672C4.47656 24.1032 3.76406 24.1079 3.32812 23.6672L0.328125 20.6719C0.117188 20.461 0 20.1751 0 19.875C0 19.5751 0.117188 19.2891 0.328125 19.0782L3.32812 16.0782C3.76875 15.6376 4.48125 15.6376 4.91719 16.0782C5.35313 16.5188 5.35781 17.2313 4.91719 17.6672L4.92188 17.6719ZM4.5 3.00005H15.8391C15.6656 3.33755 15.5625 3.71724 15.5625 4.12505C15.5625 5.47036 16.6547 6.56255 18 6.56255H23.5031C23.3156 7.35943 23.5312 8.22661 24.15 8.85005C25.1016 9.80161 26.6438 9.80161 27.5953 8.85005L28.5 7.94536V18C28.5 19.6547 27.1547 21 25.5 21H14.1609C14.3344 20.6625 14.4375 20.2829 14.4375 19.875C14.4375 18.5297 13.3453 17.4375 12 17.4375H6.49688C6.68438 16.6407 6.46875 15.7735 5.85 15.1501C4.89844 14.1985 3.35625 14.1985 2.40469 15.1501L1.5 16.0547V6.00005C1.5 4.34536 2.84531 3.00005 4.5 3.00005ZM7.5 6.00005H4.5V9.00005C6.15469 9.00005 7.5 7.65474 7.5 6.00005ZM25.5 15.0001C23.8453 15.0001 22.5 16.3454 22.5 18H25.5V15.0001ZM15 16.5C16.1935 16.5 17.3381 16.0259 18.182 15.182C19.0259 14.3381 19.5 13.1935 19.5 12.0001C19.5 10.8066 19.0259 9.66198 18.182 8.81807C17.3381 7.97416 16.1935 7.50005 15 7.50005C13.8065 7.50005 12.6619 7.97416 11.818 8.81807C10.9741 9.66198 10.5 10.8066 10.5 12.0001C10.5 13.1935 10.9741 14.3381 11.818 15.182C12.6619 16.0259 13.8065 16.5 15 16.5Z" fill="white"/>
</svg>
