<svg width="27" height="27" viewBox="0 0 27 27" fill="none" xmlns="http://www.w3.org/2000/svg">
<path d="M22.5625 23.4375L23.4375 22.5625L21.125 20.25V16.75H19.875V20.75L22.5625 23.4375ZM10.5 5.5H15.5V3H10.5V5.5ZM20.5 26.75C18.7708 26.75 17.2971 26.1404 16.0787 24.9213C14.8604 23.7021 14.2508 22.2283 14.25 20.5C14.2492 18.7717 14.8587 17.2979 16.0787 16.0788C17.2987 14.8596 18.7725 14.25 20.5 14.25C22.2275 14.25 23.7017 14.8596 24.9225 16.0788C26.1433 17.2979 26.7525 18.7717 26.75 20.5C26.7475 22.2283 26.1379 23.7025 24.9212 24.9225C23.7046 26.1425 22.2308 26.7517 20.5 26.75ZM3 24.25C2.3125 24.25 1.72417 24.0054 1.235 23.5163C0.745833 23.0271 0.500833 22.4383 0.5 21.75V8C0.5 7.3125 0.745 6.72417 1.235 6.235C1.725 5.74583 2.31333 5.50083 3 5.5H8V3C8 2.3125 8.245 1.72417 8.735 1.235C9.225 0.745833 9.81333 0.500833 10.5 0.5H15.5C16.1875 0.5 16.7762 0.745 17.2662 1.235C17.7562 1.725 18.0008 2.31333 18 3V5.5H23C23.6875 5.5 24.2762 5.745 24.7662 6.235C25.2562 6.725 25.5008 7.31333 25.5 8V13.3438C24.7708 12.8229 23.9792 12.4271 23.125 12.1563C22.2708 11.8854 21.3958 11.75 20.5 11.75C18.0833 11.75 16.0208 12.6042 14.3125 14.3125C12.6042 16.0208 11.75 18.0833 11.75 20.5C11.75 21.1458 11.8179 21.7867 11.9537 22.4225C12.0896 23.0583 12.3029 23.6675 12.5937 24.25H3Z" fill="white"/>
</svg>
