<svg width="23" height="30" viewBox="0 0 23 30" fill="none" xmlns="http://www.w3.org/2000/svg">
<path d="M22.1875 23.2793V28.125C22.1875 28.3736 22.0887 28.6121 21.9129 28.7879C21.7371 28.9637 21.4986 29.0625 21.25 29.0625C21.0014 29.0625 20.7629 28.9637 20.5871 28.7879C20.4113 28.6121 20.3125 28.3736 20.3125 28.125V23.2793C20.3081 22.076 20.0562 20.8864 19.5723 19.7846C19.0885 18.6829 18.3831 17.6924 17.5 16.875V23.7129C17.4998 23.9146 17.4346 24.111 17.3139 24.2727C17.1933 24.4344 17.0237 24.5529 16.8304 24.6105C16.637 24.6682 16.4303 24.6619 16.2408 24.5927C16.0513 24.5234 15.8891 24.3949 15.7785 24.2262L14.527 22.3148C14.5176 22.3008 14.5082 22.2856 14.5 22.2703C14.3162 21.9457 14.0109 21.7074 13.6514 21.6078C13.2918 21.5083 12.9074 21.5556 12.5828 21.7395C12.2582 21.9233 12.0199 22.2286 11.9203 22.5881C11.8208 22.9476 11.8681 23.332 12.052 23.6566L14.6453 27.6164C14.7814 27.8245 14.8293 28.0781 14.7785 28.3215C14.7276 28.5649 14.5821 28.7781 14.374 28.9143C14.1659 29.0504 13.9123 29.0983 13.6689 29.0474C13.4255 28.9965 13.2123 28.8511 13.0762 28.643L10.4676 24.6586L10.4395 24.6141C10.3949 24.5367 10.3539 24.4582 10.3164 24.3797H1.5625C1.31386 24.3797 1.0754 24.2809 0.899588 24.1051C0.723772 23.9293 0.625 23.6908 0.625 23.4422V11.25C0.625 10.7527 0.822544 10.2758 1.17417 9.92418C1.52581 9.57255 2.00272 9.375 2.5 9.375H8.125V15C8.125 15.2486 8.22377 15.4871 8.39959 15.6629C8.5754 15.8387 8.81386 15.9375 9.0625 15.9375C9.31114 15.9375 9.5496 15.8387 9.72541 15.6629C9.90123 15.4871 10 15.2486 10 15V9.375H15.625C16.1223 9.375 16.5992 9.57255 16.9508 9.92418C17.3025 10.2758 17.5 10.7527 17.5 11.25V14.4867C18.9389 15.4591 20.1183 16.7686 20.9353 18.3011C21.7523 19.8336 22.1822 21.5426 22.1875 23.2793ZM10 4.1379L12.1492 6.28829C12.3251 6.4642 12.5637 6.56303 12.8125 6.56303C13.0613 6.56303 13.2999 6.4642 13.4758 6.28829C13.6517 6.11237 13.7505 5.87378 13.7505 5.62501C13.7505 5.37623 13.6517 5.13764 13.4758 4.96172L9.72578 1.21172C9.63871 1.12456 9.53532 1.05541 9.42151 1.00823C9.3077 0.961051 9.1857 0.936768 9.0625 0.936768C8.9393 0.936768 8.8173 0.961051 8.70349 1.00823C8.58968 1.05541 8.48629 1.12456 8.39922 1.21172L4.64922 4.96172C4.47331 5.13764 4.37448 5.37623 4.37448 5.62501C4.37448 5.87378 4.47331 6.11237 4.64922 6.28829C4.82513 6.4642 5.06372 6.56303 5.3125 6.56303C5.56128 6.56303 5.79987 6.4642 5.97578 6.28829L8.125 4.1379V9.375H10V4.1379Z" fill="white"/>
</svg>
