<svg width="70" height="70" viewBox="0 0 70 70" fill="none" xmlns="http://www.w3.org/2000/svg">
<rect x="0.175049" y="0.222534" width="69.555" height="69.555" rx="34.7775" fill="#D9DFE2"/>
<g clip-path="url(#clip0_95_265)">
<path d="M37.85 19.8944C37.3169 19.8944 36.8842 19.4617 36.8842 18.9286V15.6834C36.8842 14.6191 36.0169 13.7517 34.9525 13.7517C33.8882 13.7517 33.0208 14.6191 33.0208 15.6834V18.9286C33.0208 19.4617 32.5881 19.8944 32.055 19.8944C31.5219 19.8944 31.0892 19.4637 31.0892 18.9286V15.6834C31.0892 13.5528 32.8219 11.8201 34.9525 11.8201C37.0831 11.8201 38.8158 13.5528 38.8158 15.6834V18.9286C38.8158 19.4637 38.3831 19.8944 37.85 19.8944Z" fill="black"/>
<path d="M34.9525 58.18C31.2244 58.18 28.1917 55.1473 28.1917 51.4192C28.1917 50.8861 28.6244 50.4534 29.1575 50.4534C29.6907 50.4534 30.1234 50.8861 30.1234 51.4192C30.1234 54.081 32.2907 56.2484 34.9525 56.2484C37.6144 56.2484 39.7817 54.081 39.7817 51.4192C39.7817 50.8861 40.2144 50.4534 40.7475 50.4534C41.2807 50.4534 41.7134 50.8861 41.7134 51.4192C41.7134 55.1473 38.6807 58.18 34.9525 58.18Z" fill="black"/>
<path d="M51.3717 52.3851H18.5334C16.9359 52.3851 15.6359 51.0851 15.6359 49.4876C15.6359 48.6396 16.0048 47.838 16.65 47.2855C19.6943 44.7125 21.4309 40.969 21.4309 37.0052V31.1368C21.4309 23.6805 27.4963 17.6151 34.9525 17.6151C42.4088 17.6151 48.4742 23.6805 48.4742 31.1368V37.0052C48.4742 40.9709 50.2108 44.7125 53.2396 47.272C53.9002 47.838 54.2692 48.6396 54.2692 49.4876C54.2692 51.0851 52.9711 52.3851 51.3717 52.3851ZM34.9525 19.5468C28.5606 19.5468 23.3625 24.7449 23.3625 31.1368V37.0052C23.3625 41.5407 21.3768 45.8194 17.9133 48.7478C17.6912 48.9371 17.5675 49.2056 17.5675 49.4876C17.5675 50.0208 18.0002 50.4534 18.5334 50.4534H51.3717C51.9048 50.4534 52.3375 50.0208 52.3375 49.4876C52.3375 49.2056 52.2139 48.9371 51.9995 48.7536C48.5302 45.8194 46.5425 41.5388 46.5425 37.0052V31.1368C46.5425 24.7449 41.3444 19.5468 34.9525 19.5468Z" fill="black"/>
</g>
<defs>
<clipPath id="clip0_95_265">
<rect width="46.36" height="46.36" fill="white" transform="translate(11.7725 11.8201)"/>
</clipPath>
</defs>
</svg>
