<svg width="105" height="82" viewBox="0 0 105 82" fill="none" xmlns="http://www.w3.org/2000/svg">
<g filter="url(#filter0_d_98_76)">
<path d="M65.75 0.125C66.9103 0.125 68.0231 0.55667 68.8436 1.32505C69.6641 2.09343 70.125 3.13557 70.125 4.22222V12.4167H87.625C88.7853 12.4167 89.8981 12.8483 90.7186 13.6167C91.5391 14.3851 92 15.4272 92 16.5139V65.6806H100.75V73.875H4.5V65.6806H13.25V16.5139C13.25 15.4272 13.7109 14.3851 14.5314 13.6167C15.3519 12.8483 16.4647 12.4167 17.625 12.4167H35.125V4.22222C35.125 3.13557 35.5859 2.09343 36.4064 1.32505C37.2269 0.55667 38.3397 0.125 39.5 0.125H65.75ZM43.875 20.6111H35.125V65.6806H43.875V20.6111ZM70.125 20.6111H61.375V65.6806H70.125V20.6111ZM61.375 8.31944H43.875V12.4167H61.375V8.31944Z" fill="#DDA15E"/>
</g>
<defs>
<filter id="filter0_d_98_76" x="0.5" y="0.125" width="104.25" height="81.75" filterUnits="userSpaceOnUse" color-interpolation-filters="sRGB">
<feFlood flood-opacity="0" result="BackgroundImageFix"/>
<feColorMatrix in="SourceAlpha" type="matrix" values="0 0 0 0 0 0 0 0 0 0 0 0 0 0 0 0 0 0 127 0" result="hardAlpha"/>
<feOffset dy="4"/>
<feGaussianBlur stdDeviation="2"/>
<feComposite in2="hardAlpha" operator="out"/>
<feColorMatrix type="matrix" values="0 0 0 0 0 0 0 0 0 0 0 0 0 0 0 0 0 0 0.25 0"/>
<feBlend mode="normal" in2="BackgroundImageFix" result="effect1_dropShadow_98_76"/>
<feBlend mode="normal" in="SourceGraphic" in2="effect1_dropShadow_98_76" result="shape"/>
</filter>
</defs>
</svg>
