<svg width="95" height="77" viewBox="0 0 95 77" fill="none" xmlns="http://www.w3.org/2000/svg">
<path d="M79.4265 6.57503C78.0309 5.17924 78.0309 2.92222 79.4265 1.54128C80.822 0.160341 83.0786 0.145492 84.4593 1.54128L93.9608 11.0445C94.6288 11.7127 95 12.6185 95 13.5688C95 14.5192 94.6288 15.4249 93.9608 16.0931L84.4593 25.5964C83.0638 26.9922 80.8072 26.9922 79.4265 25.5964C78.0458 24.2006 78.0309 21.9436 79.4265 20.5626L82.8411 17.1474L57.0089 17.1177C55.0344 17.1177 53.4458 15.5289 53.4458 13.554C53.4458 11.5791 55.0344 9.99026 57.0089 9.99026H82.8559L79.4265 6.57503ZM15.5884 56.4671L12.1738 59.8823H38.0059C39.9805 59.8823 41.569 61.4711 41.569 63.446C41.569 65.4209 39.9805 67.0097 38.0059 67.0097H12.1589L15.5735 70.425C16.9691 71.8208 16.9691 74.0778 15.5735 75.4587C14.178 76.8397 11.9214 76.8545 10.5407 75.4587L1.03922 65.9703C0.371152 65.3021 0 64.3963 0 63.446C0 62.4957 0.371152 61.5899 1.03922 60.9217L10.5407 51.4185C11.9362 50.0227 14.1928 50.0227 15.5735 51.4185C16.9542 52.8143 16.9691 55.0713 15.5735 56.4522L15.5884 56.4671ZM14.2522 9.99026H50.1649C49.6156 11.0594 49.2889 12.2621 49.2889 13.554C49.2889 17.8156 52.7481 21.2754 57.0089 21.2754H74.4382C73.8443 23.7997 74.5273 26.5467 76.4869 28.5216C79.5007 31.5359 84.3851 31.5359 87.3988 28.5216L90.2641 25.6558V57.5065C90.2641 62.7481 86.0033 67.0097 80.7626 67.0097H44.85C45.3993 65.9406 45.7259 64.7379 45.7259 63.446C45.7259 59.1844 42.2668 55.7246 38.0059 55.7246H20.5767C21.1705 53.2003 20.4876 50.4533 18.5279 48.4784C15.5141 45.4641 10.6298 45.4641 7.61603 48.4784L4.75074 51.3442V19.4935C4.75074 14.2519 9.01156 9.99026 14.2522 9.99026ZM23.7537 19.4935H14.2522V28.9968C19.4929 28.9968 23.7537 24.7351 23.7537 19.4935ZM80.7626 48.0032C75.522 48.0032 71.2611 52.2649 71.2611 57.5065H80.7626V48.0032ZM47.5074 52.7549C51.2873 52.7549 54.9125 51.253 57.5853 48.5797C60.2581 45.9064 61.7596 42.2806 61.7596 38.5C61.7596 34.7194 60.2581 31.0936 57.5853 28.4203C54.9125 25.747 51.2873 24.2451 47.5074 24.2451C43.7275 24.2451 40.1024 25.747 37.4296 28.4203C34.7568 31.0936 33.2552 34.7194 33.2552 38.5C33.2552 42.2806 34.7568 45.9064 37.4296 48.5797C40.1024 51.253 43.7275 52.7549 47.5074 52.7549Z" fill="black"/>
</svg>
