<svg width="73" height="67" viewBox="0 0 73 67" fill="none" xmlns="http://www.w3.org/2000/svg">
<path d="M69.6818 0H3.31818C2.43815 0 1.59415 0.352945 0.971873 0.981192C0.349593 1.60944 0 2.46152 0 3.35V30.15C0 31.0385 0.349593 31.8906 0.971873 32.5188C1.59415 33.1471 2.43815 33.5 3.31818 33.5H13.2727V63.65C13.2727 64.5385 13.6223 65.3906 14.2446 66.0188C14.8669 66.6471 15.7109 67 16.5909 67H56.4091C57.2891 67 58.1331 66.6471 58.7554 66.0188C59.3777 65.3906 59.7273 64.5385 59.7273 63.65V33.5H69.6818C70.5619 33.5 71.4058 33.1471 72.0281 32.5188C72.6504 31.8906 73 31.0385 73 30.15V3.35C73 2.46152 72.6504 1.60944 72.0281 0.981192C71.4058 0.352945 70.5619 0 69.6818 0ZM19.9091 60.3V53.6C21.6692 53.6 23.3571 54.3059 24.6017 55.5624C25.8463 56.8189 26.5455 58.523 26.5455 60.3H19.9091ZM53.0909 60.3H46.4545C46.4545 58.523 47.1537 56.8189 48.3983 55.5624C49.6429 54.3059 51.3308 53.6 53.0909 53.6V60.3ZM53.0909 46.9C49.5708 46.9 46.1948 48.3118 43.7057 50.8248C41.2166 53.3378 39.8182 56.7461 39.8182 60.3H33.1818C33.1818 56.7461 31.7834 53.3378 29.2943 50.8248C26.8052 48.3118 23.4292 46.9 19.9091 46.9V20.1H53.0909V46.9ZM66.3636 26.8H59.7273V16.75C59.7273 15.8615 59.3777 15.0094 58.7554 14.3812C58.1331 13.7529 57.2891 13.4 56.4091 13.4H16.5909C15.7109 13.4 14.8669 13.7529 14.2446 14.3812C13.6223 15.0094 13.2727 15.8615 13.2727 16.75V26.8H6.63636V6.7H66.3636V26.8ZM36.5 43.55C38.4688 43.55 40.3934 42.9606 42.0304 41.8563C43.6675 40.752 44.9434 39.1824 45.6968 37.346C46.4502 35.5096 46.6474 33.4888 46.2633 31.5393C45.8792 29.5898 44.9311 27.7991 43.5389 26.3936C42.1468 24.9881 40.373 24.0309 38.442 23.6431C36.511 23.2553 34.5095 23.4543 32.6906 24.215C30.8716 24.9757 29.3169 26.2638 28.2231 27.9165C27.1293 29.5692 26.5455 31.5123 26.5455 33.5C26.5455 36.1654 27.5942 38.7217 29.4611 40.6064C31.3279 42.4912 33.8599 43.55 36.5 43.55ZM36.5 30.15C37.1563 30.15 37.7978 30.3465 38.3435 30.7146C38.8892 31.0827 39.3145 31.6059 39.5656 32.218C39.8167 32.8301 39.8825 33.5037 39.7544 34.1536C39.6264 34.8034 39.3104 35.4003 38.8463 35.8688C38.3823 36.3373 37.791 36.6564 37.1473 36.7856C36.5037 36.9149 35.8365 36.8485 35.2302 36.595C34.6239 36.3414 34.1056 35.9121 33.741 35.3612C33.3764 34.8103 33.1818 34.1626 33.1818 33.5C33.1818 32.6115 33.5314 31.7594 34.1537 31.1312C34.776 30.5029 35.62 30.15 36.5 30.15Z" fill="black"/>
</svg>
