<svg width="63" height="83" viewBox="0 0 63 83" fill="none" xmlns="http://www.w3.org/2000/svg">
<path d="M63 65.9224V80.2199C63 80.9535 62.7114 81.6571 62.1977 82.1758C61.684 82.6946 60.9873 82.986 60.2609 82.986C59.5344 82.986 58.8377 82.6946 58.324 82.1758C57.8103 81.6571 57.5217 80.9535 57.5217 80.2199V65.9224C57.509 62.372 56.7729 58.8621 55.3592 55.6113C53.9455 52.3605 51.8845 49.4382 49.3043 47.0263V67.2018C49.3038 67.7971 49.1132 68.3763 48.7607 68.8534C48.4083 69.3306 47.9128 69.6802 47.3479 69.8502C46.783 70.0203 46.1788 70.0019 45.6252 69.7976C45.0715 69.5933 44.5979 69.214 44.2746 68.7162L40.6179 63.0768C40.5905 63.0353 40.5631 62.9903 40.5391 62.9454C40.002 61.9876 39.1101 61.2844 38.0596 60.9907C37.0091 60.697 35.8861 60.8367 34.9376 61.3791C33.9891 61.9215 33.2929 62.8222 33.002 63.883C32.7111 64.9439 32.8494 66.078 33.3866 67.0358L40.9637 78.7192C41.3614 79.3332 41.5014 80.0816 41.3527 80.7997C41.2041 81.5178 40.779 82.1469 40.1711 82.5486C39.5631 82.9503 38.822 83.0916 38.1109 82.9415C37.3998 82.7913 36.7768 82.3621 36.3791 81.7482L28.7574 69.9921L28.6753 69.8607C28.5452 69.6325 28.4253 69.4008 28.3158 69.1692H2.73913C2.01267 69.1692 1.31596 68.8778 0.802273 68.359C0.288587 67.8403 0 67.1367 0 66.4031V30.4296C0 28.9623 0.577172 27.5552 1.60455 26.5177C2.63192 25.4802 4.02534 24.8973 5.47826 24.8973H21.913V41.4941C21.913 42.2277 22.2016 42.9313 22.7153 43.45C23.229 43.9688 23.9257 44.2602 24.6522 44.2602C25.3786 44.2602 26.0753 43.9688 26.589 43.45C27.1027 42.9313 27.3913 42.2277 27.3913 41.4941V24.8973H43.8261C45.279 24.8973 46.6724 25.4802 47.6998 26.5177C48.7272 27.5552 49.3043 28.9623 49.3043 30.4296V39.9796C53.5086 42.8487 56.9543 46.7123 59.3414 51.234C61.7285 55.7557 62.9845 60.7983 63 65.9224ZM27.3913 9.44504L33.6708 15.7898C34.1847 16.3089 34.8818 16.6005 35.6087 16.6005C36.3356 16.6005 37.0327 16.3089 37.5466 15.7898C38.0606 15.2708 38.3494 14.5668 38.3494 13.8328C38.3494 13.0988 38.0606 12.3948 37.5466 11.8758L26.5901 0.811268C26.3357 0.554084 26.0336 0.350057 25.7011 0.210853C25.3686 0.0716501 25.0121 0 24.6522 0C24.2922 0 23.9358 0.0716501 23.6033 0.210853C23.2707 0.350057 22.9686 0.554084 22.7142 0.811268L11.7577 11.8758C11.2437 12.3948 10.955 13.0988 10.955 13.8328C10.955 14.5668 11.2437 15.2708 11.7577 15.7898C12.2717 16.3089 12.9688 16.6005 13.6957 16.6005C14.4225 16.6005 15.1196 16.3089 15.6336 15.7898L21.913 9.44504V24.8973H27.3913V9.44504Z" fill="black"/>
</svg>
